<?xml version="1.0" standalone="no"?><!DOCTYPE svg PUBLIC "-//W3C//DTD SVG 1.1//EN" "http://www.w3.org/Graphics/SVG/1.1/DTD/svg11.dtd"><svg t="1694236743543" class="icon" viewBox="0 0 1024 1024" version="1.1" xmlns="http://www.w3.org/2000/svg" p-id="6623" xmlns:xlink="http://www.w3.org/1999/xlink" width="200" height="200"><path d="M309.56 697.31c-1.48 0-2.91-0.13-4.39-0.46-11.68-2.36-19.19-13.79-16.82-25.47 17.37-84.29 48.7-164.41 93.19-238.11 45.71-75.77 103.9-142.44 173.01-198.14 9.23-7.46 22.77-6.07 30.36 3.29 7.46 9.28 6.03 22.85-3.29 30.36-65.15 52.5-120.01 115.37-163.14 186.8-41.91 69.53-71.47 145.05-87.79 224.49-2.11 10.2-11.13 17.24-21.13 17.24z" fill="#000000" p-id="6624"></path><path d="M799.07 770.01c-7.63 0-15.05-4.09-18.97-11.3-38.67-71.39-88.8-135.14-148.97-189.49-61.98-56-132.7-100.31-210.2-131.77-11.05-4.47-16.36-17.04-11.85-28.12 4.43-11.01 16.91-16.4 28.12-11.85 82.14 33.31 157.15 80.33 222.85 139.7 63.84 57.68 117.01 125.28 158 200.96 5.69 10.5 1.77 23.61-8.69 29.26-3.29 1.76-6.79 2.61-10.29 2.61z" fill="#000000" p-id="6625"></path><path d="M428.29 400.07c4.39-68.43-11.23-115.6-24.44-143.98-6.87-14.76-17.46-33.82-92.18-125.12a5325.697 5325.697 0 0 0-65.62-78.63c-12.51 36.18-30.14 105.6-9.56 185.42 7.82 30.33 19.02 73.77 58.18 110.51 50.82 47.69 113.91 51.42 133.62 51.8z" fill="#5DA723" p-id="6626"></path><path d="M448.54 422.05l-20.66-0.38c-32.97-0.63-96.1-8.98-147.96-57.68-43.85-41.07-56.17-89.1-64.35-120.89-20.62-79.9-5.9-151.67 10.08-197.8l12.4-35.76 24.46 28.84c16.02 18.81 38.84 45.92 65.86 78.94 74.51 90.99 86.74 111.82 95.04 129.66 21.21 45.54 30.11 97.53 26.44 154.5l-1.31 20.57zM255.8 97.37c-8.14 37.49-11.43 84.5 1.6 134.97 7.34 28.59 17.37 67.68 52.03 100.14 32.13 30.15 70.12 40.9 98.04 44.44 0-41.07-7.8-78.6-23.19-111.74-6.49-13.96-18.26-33.69-89.31-120.55-14.42-17.53-27.57-33.43-39.17-47.26z" fill="#000000" p-id="6627"></path><path d="M718.91 516.32L700.42 527c-22.29 12.87-29.93 41.37-17.06 63.66-12.87-22.29-41.37-29.92-63.66-17.06l-18.5 10.68c-68.41 39.5-91.85 126.98-52.36 195.39l4.53 7.85c58.26 100.92 187.31 135.49 288.22 77.23s135.49-187.31 77.23-288.22l-4.53-7.85c-39.49-68.41-126.96-91.85-195.38-52.36z" fill="#F53926" p-id="6628"></path><path d="M918.83 576.53l-4.53-7.85c-38.87-67.32-124.11-90.77-192.01-53.88 54.99-6.41 111.09 19.49 140.53 70.49l4.53 7.85c58.27 100.92 23.69 229.96-77.23 288.22-5.46 3.15-11.25 4.98-16.86 7.59 23.4-4.19 46.56-11.63 68.34-24.2 100.92-58.26 135.5-187.31 77.23-288.22z" fill="#BC1C20" p-id="6629"></path><path d="M736.5 914.72c-20.24 0-40.56-2.66-60.59-8.01-60-16.11-110.18-54.61-141.21-108.41l-4.55-7.89c-21.97-38.03-27.83-82.39-16.44-124.85 11.38-42.5 38.62-78.01 76.7-99.98l18.51-10.71c15.6-8.94 33.31-11.05 49.59-7.29 4.85-15.98 15.52-30.28 31.12-39.26l18.51-10.71c38.12-21.97 82.43-27.79 124.9-16.44 42.5 11.38 78.01 38.62 99.98 76.7l4.55 7.97c31.03 53.72 39.3 116.38 23.23 176.38-16.11 60-54.56 110.18-108.37 141.21-35.86 20.71-75.66 31.29-115.93 31.29z m-93.53-325.78c-4.26 0-8.56 1.1-12.48 3.37l-18.51 10.67c-57.98 33.48-77.92 107.9-44.44 165.88l4.55 7.89c25.26 43.77 66.12 75.14 114.99 88.21 48.87 13.11 99.93 6.37 143.74-18.89 90.45-52.24 121.52-168.29 69.32-258.73l-4.55-7.97c-33.52-57.89-107.86-77.71-165.88-44.36v0.04l-18.51 10.67c-11.93 6.87-16.02 22.22-9.11 34.15 1.94 3.42 2.87 7.08 2.87 10.75 0 7.46-3.88 14.76-10.79 18.76-10.37 5.86-23.57 2.36-29.52-7.93-4.6-7.99-13.03-12.51-21.68-12.51z m75.94-72.61h0.42-0.42z" fill="#000000" p-id="6630"></path><path d="M402.13 570.14H377.2c-30.04 0-54.39 24.35-54.39 54.39 0-30.04-24.35-54.39-54.39-54.39h-24.93c-92.2 0-166.95 74.74-166.95 166.95v10.58c0 136.01 110.26 246.27 246.27 246.27s246.27-110.26 246.27-246.27v-10.58c0-92.2-74.75-166.95-166.95-166.95z" fill="#F53926" p-id="6631"></path><path d="M402.13 570.14H377.2c-30.04 0-54.39 24.35-54.39 54.39 0-30.04-24.35-54.39-54.39-54.39h-24.93c-92.2 0-166.95 74.74-166.95 166.95v10.58c0 136.01 110.26 246.27 246.27 246.27s246.27-110.26 246.27-246.27v-10.58c0-92.2-74.75-166.95-166.95-166.95z" fill="#F53926" p-id="6632"></path><path d="M402.13 570.14h-16.24c70.3 19.68 122.16 83.52 122.16 160.1v10.58c0 134.82-108.38 244.18-242.75 246.09 18.48 4.43 37.67 7.03 57.51 7.03 136.01 0 246.27-110.26 246.27-246.27v-10.58c0-92.2-74.75-166.95-166.95-166.95z" fill="#BC1C20" p-id="6633"></path><path d="M322.8 1015.54c-147.67 0-267.84-120.17-267.84-267.88v-10.58c0-103.94 84.59-188.53 188.53-188.53h24.92c21.29 0 40.56 8.81 54.39 22.98 13.83-14.17 33.1-22.98 54.39-22.98h24.92c103.98 0 188.57 84.59 188.57 188.53v10.58c0.01 147.71-120.17 267.88-267.88 267.88z m-79.31-423.81c-80.16 0-145.35 65.19-145.35 145.35v10.58c0 123.88 100.78 224.7 224.66 224.7s224.7-100.82 224.7-224.7v-10.58c0-80.16-65.23-145.35-145.39-145.35H377.2c-18.09 0-32.81 14.72-32.81 32.81 0 11.93-9.66 21.59-21.59 21.59s-21.59-9.66-21.59-21.59c0-18.09-14.72-32.81-32.81-32.81h-24.91z" fill="#000000" p-id="6634"></path><path d="M168.35 735.94c-0.97 0-1.9-0.04-2.87-0.17-11.81-1.6-20.16-12.44-18.6-24.25 3.12-23.57 13.79-45.67 30.06-62.15 11.98-12.14 26.99-21.38 43.43-26.73 11.55-3.67 23.53 2.57 27.2 13.87 3.67 11.34-2.53 23.53-13.87 27.2-9.87 3.2-18.89 8.73-25.97 15.94-13.11 13.32-16.91 29.22-18 37.53-1.44 10.87-10.71 18.76-21.38 18.76z" fill="#FFFFFF" p-id="6635"></path></svg>